<mxfile host="app.diagrams.net" modified="2023-03-30T11:10:40.162Z" agent="Mozilla/5.0 (Windows NT 10.0; Win64; x64) AppleWebKit/537.36 (KHTML, like Gecko) Chrome/111.0.0.0 Safari/537.36" etag="HmZRm8gQF6qzXaIHFy_e" version="21.1.2" type="device">
  <diagram name="Страница 1" id="lp4u4pwnML9mge1Ba6F8">
    <mxGraphModel dx="1938" dy="1076" grid="1" gridSize="10" guides="1" tooltips="1" connect="1" arrows="1" fold="1" page="1" pageScale="1" pageWidth="827" pageHeight="1169" math="0" shadow="0">
      <root>
        <mxCell id="0" />
        <mxCell id="1" parent="0" />
        <mxCell id="v6Twj9tWoPP9V-CoZJIU-1" value="Корабль" style="swimlane;childLayout=stackLayout;horizontal=1;startSize=50;horizontalStack=0;rounded=1;fontSize=14;fontStyle=0;strokeWidth=2;resizeParent=0;resizeLast=1;shadow=0;dashed=0;align=center;arcSize=4;whiteSpace=wrap;html=1;" vertex="1" parent="1">
          <mxGeometry x="650" y="260" width="160" height="120" as="geometry" />
        </mxCell>
        <mxCell id="v6Twj9tWoPP9V-CoZJIU-2" value="Название&lt;br&gt;Действие&lt;br&gt;Длителность действие" style="align=left;strokeColor=none;fillColor=none;spacingLeft=4;fontSize=12;verticalAlign=top;resizable=0;rotatable=0;part=1;html=1;" vertex="1" parent="v6Twj9tWoPP9V-CoZJIU-1">
          <mxGeometry y="50" width="160" height="70" as="geometry" />
        </mxCell>
        <mxCell id="v6Twj9tWoPP9V-CoZJIU-23" style="edgeStyle=orthogonalEdgeStyle;rounded=0;orthogonalLoop=1;jettySize=auto;html=1;endArrow=none;endFill=0;" edge="1" parent="1" source="v6Twj9tWoPP9V-CoZJIU-4" target="v6Twj9tWoPP9V-CoZJIU-9">
          <mxGeometry relative="1" as="geometry">
            <Array as="points">
              <mxPoint x="480" y="445" />
              <mxPoint x="570" y="445" />
            </Array>
          </mxGeometry>
        </mxCell>
        <mxCell id="v6Twj9tWoPP9V-CoZJIU-36" value="1" style="edgeLabel;html=1;align=center;verticalAlign=middle;resizable=0;points=[];fontSize=16;" vertex="1" connectable="0" parent="v6Twj9tWoPP9V-CoZJIU-23">
          <mxGeometry x="-0.8242" y="-1" relative="1" as="geometry">
            <mxPoint x="11" y="-10" as="offset" />
          </mxGeometry>
        </mxCell>
        <mxCell id="v6Twj9tWoPP9V-CoZJIU-39" value="1" style="edgeLabel;html=1;align=center;verticalAlign=middle;resizable=0;points=[];fontSize=16;" vertex="1" connectable="0" parent="v6Twj9tWoPP9V-CoZJIU-23">
          <mxGeometry x="0.8381" relative="1" as="geometry">
            <mxPoint x="10" y="8" as="offset" />
          </mxGeometry>
        </mxCell>
        <mxCell id="v6Twj9tWoPP9V-CoZJIU-24" style="edgeStyle=orthogonalEdgeStyle;rounded=0;orthogonalLoop=1;jettySize=auto;html=1;endArrow=none;endFill=0;" edge="1" parent="1" source="v6Twj9tWoPP9V-CoZJIU-4" target="v6Twj9tWoPP9V-CoZJIU-11">
          <mxGeometry relative="1" as="geometry">
            <Array as="points">
              <mxPoint x="400" y="450" />
              <mxPoint x="160" y="450" />
            </Array>
          </mxGeometry>
        </mxCell>
        <mxCell id="v6Twj9tWoPP9V-CoZJIU-37" value="M" style="edgeLabel;html=1;align=center;verticalAlign=middle;resizable=0;points=[];fontSize=16;" vertex="1" connectable="0" parent="v6Twj9tWoPP9V-CoZJIU-24">
          <mxGeometry x="-0.8156" y="-1" relative="1" as="geometry">
            <mxPoint x="11" y="-24" as="offset" />
          </mxGeometry>
        </mxCell>
        <mxCell id="v6Twj9tWoPP9V-CoZJIU-38" value="1" style="edgeLabel;html=1;align=center;verticalAlign=middle;resizable=0;points=[];fontSize=16;" vertex="1" connectable="0" parent="v6Twj9tWoPP9V-CoZJIU-24">
          <mxGeometry x="0.8381" relative="1" as="geometry">
            <mxPoint x="10" y="20" as="offset" />
          </mxGeometry>
        </mxCell>
        <mxCell id="v6Twj9tWoPP9V-CoZJIU-31" style="edgeStyle=orthogonalEdgeStyle;rounded=0;orthogonalLoop=1;jettySize=auto;html=1;entryX=0.5;entryY=1;entryDx=0;entryDy=0;endArrow=none;endFill=0;" edge="1" parent="1" source="v6Twj9tWoPP9V-CoZJIU-4" target="v6Twj9tWoPP9V-CoZJIU-20">
          <mxGeometry relative="1" as="geometry" />
        </mxCell>
        <mxCell id="v6Twj9tWoPP9V-CoZJIU-32" value="1" style="edgeLabel;html=1;align=center;verticalAlign=middle;resizable=0;points=[];fontSize=16;" vertex="1" connectable="0" parent="v6Twj9tWoPP9V-CoZJIU-31">
          <mxGeometry x="-0.6801" relative="1" as="geometry">
            <mxPoint x="10" as="offset" />
          </mxGeometry>
        </mxCell>
        <mxCell id="v6Twj9tWoPP9V-CoZJIU-35" value="М" style="edgeLabel;html=1;align=center;verticalAlign=middle;resizable=0;points=[];fontSize=16;" vertex="1" connectable="0" parent="v6Twj9tWoPP9V-CoZJIU-31">
          <mxGeometry x="0.6762" y="-1" relative="1" as="geometry">
            <mxPoint x="9" as="offset" />
          </mxGeometry>
        </mxCell>
        <mxCell id="v6Twj9tWoPP9V-CoZJIU-58" style="edgeStyle=orthogonalEdgeStyle;rounded=0;orthogonalLoop=1;jettySize=auto;html=1;entryX=-0.007;entryY=0.151;entryDx=0;entryDy=0;entryPerimeter=0;endArrow=none;endFill=0;" edge="1" parent="1" source="v6Twj9tWoPP9V-CoZJIU-4" target="v6Twj9tWoPP9V-CoZJIU-2">
          <mxGeometry relative="1" as="geometry" />
        </mxCell>
        <mxCell id="v6Twj9tWoPP9V-CoZJIU-59" value="1" style="edgeLabel;html=1;align=center;verticalAlign=middle;resizable=0;points=[];fontSize=16;" vertex="1" connectable="0" parent="v6Twj9tWoPP9V-CoZJIU-58">
          <mxGeometry x="0.7984" y="1" relative="1" as="geometry">
            <mxPoint x="4" y="-20" as="offset" />
          </mxGeometry>
        </mxCell>
        <mxCell id="v6Twj9tWoPP9V-CoZJIU-60" value="M" style="edgeLabel;html=1;align=center;verticalAlign=middle;resizable=0;points=[];fontSize=16;" vertex="1" connectable="0" parent="v6Twj9tWoPP9V-CoZJIU-58">
          <mxGeometry x="-0.8088" y="-1" relative="1" as="geometry">
            <mxPoint x="-2" y="-21" as="offset" />
          </mxGeometry>
        </mxCell>
        <mxCell id="v6Twj9tWoPP9V-CoZJIU-4" value="Человек" style="swimlane;childLayout=stackLayout;horizontal=1;startSize=50;horizontalStack=0;rounded=1;fontSize=14;fontStyle=0;strokeWidth=2;resizeParent=0;resizeLast=1;shadow=0;dashed=0;align=center;arcSize=4;whiteSpace=wrap;html=1;" vertex="1" parent="1">
          <mxGeometry x="360" y="260" width="160" height="120" as="geometry" />
        </mxCell>
        <mxCell id="v6Twj9tWoPP9V-CoZJIU-5" value="Имя&lt;br&gt;Фамилия&lt;br&gt;Пол&lt;br&gt;Возраст" style="align=left;strokeColor=none;fillColor=none;spacingLeft=4;fontSize=12;verticalAlign=top;resizable=0;rotatable=0;part=1;html=1;" vertex="1" parent="v6Twj9tWoPP9V-CoZJIU-4">
          <mxGeometry y="50" width="160" height="70" as="geometry" />
        </mxCell>
        <mxCell id="v6Twj9tWoPP9V-CoZJIU-26" style="edgeStyle=orthogonalEdgeStyle;rounded=0;orthogonalLoop=1;jettySize=auto;html=1;endArrow=none;endFill=0;" edge="1" parent="1" source="v6Twj9tWoPP9V-CoZJIU-9" target="v6Twj9tWoPP9V-CoZJIU-15">
          <mxGeometry relative="1" as="geometry">
            <Array as="points">
              <mxPoint x="600" y="660" />
              <mxPoint x="600" y="660" />
            </Array>
          </mxGeometry>
        </mxCell>
        <mxCell id="v6Twj9tWoPP9V-CoZJIU-40" value="1" style="edgeLabel;html=1;align=center;verticalAlign=middle;resizable=0;points=[];fontSize=16;" vertex="1" connectable="0" parent="v6Twj9tWoPP9V-CoZJIU-26">
          <mxGeometry x="-0.661" y="-1" relative="1" as="geometry">
            <mxPoint x="11" y="-7" as="offset" />
          </mxGeometry>
        </mxCell>
        <mxCell id="v6Twj9tWoPP9V-CoZJIU-42" value="М" style="edgeLabel;html=1;align=center;verticalAlign=middle;resizable=0;points=[];fontSize=16;" vertex="1" connectable="0" parent="v6Twj9tWoPP9V-CoZJIU-26">
          <mxGeometry x="0.72" relative="1" as="geometry">
            <mxPoint x="10" y="4" as="offset" />
          </mxGeometry>
        </mxCell>
        <mxCell id="v6Twj9tWoPP9V-CoZJIU-28" style="edgeStyle=orthogonalEdgeStyle;rounded=0;orthogonalLoop=1;jettySize=auto;html=1;entryX=0.5;entryY=0;entryDx=0;entryDy=0;endArrow=none;endFill=0;" edge="1" parent="1" source="v6Twj9tWoPP9V-CoZJIU-9" target="v6Twj9tWoPP9V-CoZJIU-13">
          <mxGeometry relative="1" as="geometry">
            <Array as="points">
              <mxPoint x="540" y="680" />
              <mxPoint x="390" y="680" />
            </Array>
          </mxGeometry>
        </mxCell>
        <mxCell id="v6Twj9tWoPP9V-CoZJIU-41" value="1" style="edgeLabel;html=1;align=center;verticalAlign=middle;resizable=0;points=[];fontSize=16;" vertex="1" connectable="0" parent="v6Twj9tWoPP9V-CoZJIU-28">
          <mxGeometry x="-0.8491" relative="1" as="geometry">
            <mxPoint x="10" y="-9" as="offset" />
          </mxGeometry>
        </mxCell>
        <mxCell id="v6Twj9tWoPP9V-CoZJIU-43" value="М" style="edgeLabel;html=1;align=center;verticalAlign=middle;resizable=0;points=[];fontSize=16;" vertex="1" connectable="0" parent="v6Twj9tWoPP9V-CoZJIU-28">
          <mxGeometry x="0.9032" y="-2" relative="1" as="geometry">
            <mxPoint x="12" as="offset" />
          </mxGeometry>
        </mxCell>
        <mxCell id="v6Twj9tWoPP9V-CoZJIU-9" value="Достояние" style="swimlane;childLayout=stackLayout;horizontal=1;startSize=50;horizontalStack=0;rounded=1;fontSize=14;fontStyle=0;strokeWidth=2;resizeParent=0;resizeLast=1;shadow=0;dashed=0;align=center;arcSize=4;whiteSpace=wrap;html=1;" vertex="1" parent="1">
          <mxGeometry x="490" y="510" width="160" height="120" as="geometry" />
        </mxCell>
        <mxCell id="v6Twj9tWoPP9V-CoZJIU-10" value="Другого ли человека?" style="align=left;strokeColor=none;fillColor=none;spacingLeft=4;fontSize=12;verticalAlign=top;resizable=0;rotatable=0;part=1;html=1;" vertex="1" parent="v6Twj9tWoPP9V-CoZJIU-9">
          <mxGeometry y="50" width="160" height="70" as="geometry" />
        </mxCell>
        <mxCell id="v6Twj9tWoPP9V-CoZJIU-11" value="Мирок" style="swimlane;childLayout=stackLayout;horizontal=1;startSize=50;horizontalStack=0;rounded=1;fontSize=14;fontStyle=0;strokeWidth=2;resizeParent=0;resizeLast=1;shadow=0;dashed=0;align=center;arcSize=4;whiteSpace=wrap;html=1;" vertex="1" parent="1">
          <mxGeometry x="80" y="510" width="160" height="120" as="geometry" />
        </mxCell>
        <mxCell id="v6Twj9tWoPP9V-CoZJIU-12" value="Название&lt;br&gt;Замкнут ли" style="align=left;strokeColor=none;fillColor=none;spacingLeft=4;fontSize=12;verticalAlign=top;resizable=0;rotatable=0;part=1;html=1;" vertex="1" parent="v6Twj9tWoPP9V-CoZJIU-11">
          <mxGeometry y="50" width="160" height="70" as="geometry" />
        </mxCell>
        <mxCell id="v6Twj9tWoPP9V-CoZJIU-48" style="edgeStyle=orthogonalEdgeStyle;rounded=0;orthogonalLoop=1;jettySize=auto;html=1;endArrow=none;endFill=0;entryX=0.5;entryY=0;entryDx=0;entryDy=0;" edge="1" parent="1" source="v6Twj9tWoPP9V-CoZJIU-13" target="v6Twj9tWoPP9V-CoZJIU-46">
          <mxGeometry relative="1" as="geometry">
            <mxPoint x="160" y="930" as="targetPoint" />
          </mxGeometry>
        </mxCell>
        <mxCell id="v6Twj9tWoPP9V-CoZJIU-51" value="М" style="edgeLabel;html=1;align=center;verticalAlign=middle;resizable=0;points=[];fontSize=16;" vertex="1" connectable="0" parent="v6Twj9tWoPP9V-CoZJIU-48">
          <mxGeometry x="-0.8491" y="-2" relative="1" as="geometry">
            <mxPoint x="9" y="-18" as="offset" />
          </mxGeometry>
        </mxCell>
        <mxCell id="v6Twj9tWoPP9V-CoZJIU-52" value="&lt;font style=&quot;font-size: 16px;&quot;&gt;M&lt;/font&gt;" style="edgeLabel;html=1;align=center;verticalAlign=middle;resizable=0;points=[];" vertex="1" connectable="0" parent="v6Twj9tWoPP9V-CoZJIU-48">
          <mxGeometry x="0.895" relative="1" as="geometry">
            <mxPoint x="-9" y="-4" as="offset" />
          </mxGeometry>
        </mxCell>
        <mxCell id="v6Twj9tWoPP9V-CoZJIU-13" value="Год обучения" style="swimlane;childLayout=stackLayout;horizontal=1;startSize=50;horizontalStack=0;rounded=1;fontSize=14;fontStyle=0;strokeWidth=2;resizeParent=0;resizeLast=1;shadow=0;dashed=0;align=center;arcSize=4;whiteSpace=wrap;html=1;" vertex="1" parent="1">
          <mxGeometry x="310" y="730" width="160" height="120" as="geometry" />
        </mxCell>
        <mxCell id="v6Twj9tWoPP9V-CoZJIU-14" value="Номер&lt;br&gt;" style="align=left;strokeColor=none;fillColor=none;spacingLeft=4;fontSize=12;verticalAlign=top;resizable=0;rotatable=0;part=1;html=1;" vertex="1" parent="v6Twj9tWoPP9V-CoZJIU-13">
          <mxGeometry y="50" width="160" height="70" as="geometry" />
        </mxCell>
        <mxCell id="v6Twj9tWoPP9V-CoZJIU-27" style="edgeStyle=orthogonalEdgeStyle;rounded=0;orthogonalLoop=1;jettySize=auto;html=1;entryX=0.5;entryY=0;entryDx=0;entryDy=0;endArrow=none;endFill=0;" edge="1" parent="1" source="v6Twj9tWoPP9V-CoZJIU-15" target="v6Twj9tWoPP9V-CoZJIU-17">
          <mxGeometry relative="1" as="geometry" />
        </mxCell>
        <mxCell id="v6Twj9tWoPP9V-CoZJIU-44" value="M" style="edgeLabel;html=1;align=center;verticalAlign=middle;resizable=0;points=[];fontSize=16;" vertex="1" connectable="0" parent="v6Twj9tWoPP9V-CoZJIU-27">
          <mxGeometry x="-0.7714" y="-2" relative="1" as="geometry">
            <mxPoint x="13" as="offset" />
          </mxGeometry>
        </mxCell>
        <mxCell id="v6Twj9tWoPP9V-CoZJIU-45" value="1" style="edgeLabel;html=1;align=center;verticalAlign=middle;resizable=0;points=[];fontSize=16;" vertex="1" connectable="0" parent="v6Twj9tWoPP9V-CoZJIU-27">
          <mxGeometry x="0.6783" y="-1" relative="1" as="geometry">
            <mxPoint x="11" y="4" as="offset" />
          </mxGeometry>
        </mxCell>
        <mxCell id="v6Twj9tWoPP9V-CoZJIU-15" value="Полёт" style="swimlane;childLayout=stackLayout;horizontal=1;startSize=50;horizontalStack=0;rounded=1;fontSize=14;fontStyle=0;strokeWidth=2;resizeParent=0;resizeLast=1;shadow=0;dashed=0;align=center;arcSize=4;whiteSpace=wrap;html=1;" vertex="1" parent="1">
          <mxGeometry x="519" y="730" width="160" height="120" as="geometry" />
        </mxCell>
        <mxCell id="v6Twj9tWoPP9V-CoZJIU-16" value="Маршрут&lt;br&gt;Продолжителность" style="align=left;strokeColor=none;fillColor=none;spacingLeft=4;fontSize=12;verticalAlign=top;resizable=0;rotatable=0;part=1;html=1;" vertex="1" parent="v6Twj9tWoPP9V-CoZJIU-15">
          <mxGeometry y="50" width="160" height="70" as="geometry" />
        </mxCell>
        <mxCell id="v6Twj9tWoPP9V-CoZJIU-17" value="Планета" style="swimlane;childLayout=stackLayout;horizontal=1;startSize=50;horizontalStack=0;rounded=1;fontSize=14;fontStyle=0;strokeWidth=2;resizeParent=0;resizeLast=1;shadow=0;dashed=0;align=center;arcSize=4;whiteSpace=wrap;html=1;" vertex="1" parent="1">
          <mxGeometry x="520" y="940" width="160" height="120" as="geometry" />
        </mxCell>
        <mxCell id="v6Twj9tWoPP9V-CoZJIU-18" value="Название" style="align=left;strokeColor=none;fillColor=none;spacingLeft=4;fontSize=12;verticalAlign=top;resizable=0;rotatable=0;part=1;html=1;" vertex="1" parent="v6Twj9tWoPP9V-CoZJIU-17">
          <mxGeometry y="50" width="160" height="70" as="geometry" />
        </mxCell>
        <mxCell id="v6Twj9tWoPP9V-CoZJIU-19" value="Событие жизни" style="swimlane;childLayout=stackLayout;horizontal=1;startSize=50;horizontalStack=0;rounded=1;fontSize=14;fontStyle=0;strokeWidth=2;resizeParent=0;resizeLast=1;shadow=0;dashed=0;align=center;arcSize=4;whiteSpace=wrap;html=1;" vertex="1" parent="1">
          <mxGeometry x="360" y="80" width="160" height="120" as="geometry" />
        </mxCell>
        <mxCell id="v6Twj9tWoPP9V-CoZJIU-20" value="Событие&lt;br&gt;В чужой ли жизни" style="align=left;strokeColor=none;fillColor=none;spacingLeft=4;fontSize=12;verticalAlign=top;resizable=0;rotatable=0;part=1;html=1;" vertex="1" parent="v6Twj9tWoPP9V-CoZJIU-19">
          <mxGeometry y="50" width="160" height="70" as="geometry" />
        </mxCell>
        <mxCell id="v6Twj9tWoPP9V-CoZJIU-50" style="edgeStyle=orthogonalEdgeStyle;rounded=0;orthogonalLoop=1;jettySize=auto;html=1;entryX=0;entryY=0.143;entryDx=0;entryDy=0;entryPerimeter=0;endArrow=none;endFill=0;" edge="1" parent="1" source="v6Twj9tWoPP9V-CoZJIU-46" target="v6Twj9tWoPP9V-CoZJIU-18">
          <mxGeometry relative="1" as="geometry" />
        </mxCell>
        <mxCell id="v6Twj9tWoPP9V-CoZJIU-53" value="М" style="edgeLabel;html=1;align=center;verticalAlign=middle;resizable=0;points=[];fontSize=16;" vertex="1" connectable="0" parent="v6Twj9tWoPP9V-CoZJIU-50">
          <mxGeometry x="-0.8786" y="-2" relative="1" as="geometry">
            <mxPoint x="-7" y="-22" as="offset" />
          </mxGeometry>
        </mxCell>
        <mxCell id="v6Twj9tWoPP9V-CoZJIU-54" value="&lt;font style=&quot;font-size: 16px;&quot;&gt;1&lt;/font&gt;" style="edgeLabel;html=1;align=center;verticalAlign=middle;resizable=0;points=[];" vertex="1" connectable="0" parent="v6Twj9tWoPP9V-CoZJIU-50">
          <mxGeometry x="0.8935" y="1" relative="1" as="geometry">
            <mxPoint x="5" y="-19" as="offset" />
          </mxGeometry>
        </mxCell>
        <mxCell id="v6Twj9tWoPP9V-CoZJIU-46" value="Уч. Заведение" style="swimlane;childLayout=stackLayout;horizontal=1;startSize=50;horizontalStack=0;rounded=1;fontSize=14;fontStyle=0;strokeWidth=2;resizeParent=0;resizeLast=1;shadow=0;dashed=0;align=center;arcSize=4;whiteSpace=wrap;html=1;" vertex="1" parent="1">
          <mxGeometry x="80" y="940" width="160" height="120" as="geometry" />
        </mxCell>
        <mxCell id="v6Twj9tWoPP9V-CoZJIU-47" value="Название" style="align=left;strokeColor=none;fillColor=none;spacingLeft=4;fontSize=12;verticalAlign=top;resizable=0;rotatable=0;part=1;html=1;" vertex="1" parent="v6Twj9tWoPP9V-CoZJIU-46">
          <mxGeometry y="50" width="160" height="70" as="geometry" />
        </mxCell>
        <mxCell id="v6Twj9tWoPP9V-CoZJIU-61" style="edgeStyle=orthogonalEdgeStyle;rounded=0;orthogonalLoop=1;jettySize=auto;html=1;entryX=1;entryY=0.25;entryDx=0;entryDy=0;endArrow=none;endFill=0;" edge="1" parent="1" source="v6Twj9tWoPP9V-CoZJIU-2" target="v6Twj9tWoPP9V-CoZJIU-16">
          <mxGeometry relative="1" as="geometry" />
        </mxCell>
        <mxCell id="v6Twj9tWoPP9V-CoZJIU-62" value="1" style="edgeLabel;html=1;align=center;verticalAlign=middle;resizable=0;points=[];fontSize=16;" vertex="1" connectable="0" parent="v6Twj9tWoPP9V-CoZJIU-61">
          <mxGeometry x="-0.9384" relative="1" as="geometry">
            <mxPoint x="10" y="-4" as="offset" />
          </mxGeometry>
        </mxCell>
        <mxCell id="v6Twj9tWoPP9V-CoZJIU-63" value="M" style="edgeLabel;html=1;align=center;verticalAlign=middle;resizable=0;points=[];fontSize=16;" vertex="1" connectable="0" parent="v6Twj9tWoPP9V-CoZJIU-61">
          <mxGeometry x="0.9521" relative="1" as="geometry">
            <mxPoint y="-17" as="offset" />
          </mxGeometry>
        </mxCell>
      </root>
    </mxGraphModel>
  </diagram>
</mxfile>
